<svg width="1200" height="600" viewBox="0 0 1200 600" xmlns="http://www.w3.org/2000/svg">
  <path d="M120,240 C180,230 200,220 220,210 C240,200 280,190 300,180 C320,170 340,160 360,150 C380,140 400,130 420,120 C440,110 460,100 480,90 C500,80 520,70 540,60 C560,50 580,40 600,30 C620,20 640,10 660,0 C680,-10 700,-20 720,-30 C740,-40 760,-50 780,-60 C800,-70 820,-80 840,-90 C860,-100 880,-110 900,-120 C920,-130 940,-140 960,-150 C980,-160 1000,-170 1020,-180 C1040,-190 1060,-200 1080,-210" 
    fill="none" 
    stroke="currentColor" 
    stroke-width="2"
  />
  <!-- North America -->
  <path d="M200,120 C250,110 300,100 350,90 C400,80 450,70 500,60 L480,150 L350,200 L200,120Z" 
    fill="currentColor" 
    opacity="0.8"
  />
  <!-- South America -->
  <path d="M300,300 C320,280 340,260 360,240 L400,350 L300,400 L300,300Z" 
    fill="currentColor" 
    opacity="0.8"
  />
  <!-- Europe -->
  <path d="M550,100 C600,90 650,80 700,70 L680,150 L600,180 L550,100Z" 
    fill="currentColor" 
    opacity="0.8"
  />
  <!-- Africa -->
  <path d="M550,200 C580,190 610,180 640,170 L620,300 L500,350 L550,200Z" 
    fill="currentColor" 
    opacity="0.8"
  />
  <!-- Asia -->
  <path d="M700,100 C800,80 900,60 1000,40 L950,200 L750,250 L700,100Z" 
    fill="currentColor" 
    opacity="0.8"
  />
  <!-- Australia -->
  <path d="M900,300 C920,290 940,280 960,270 L940,350 L880,380 L900,300Z" 
    fill="currentColor" 
    opacity="0.8"
  />
</svg> 